<?xml version="1.0" encoding="utf-8"?>
<!-- Generator: Adobe Illustrator 21.0.1, SVG Export Plug-In . SVG Version: 6.00 Build 0)  -->
<svg version="1.1"
	 id="svg2" xmlns:cc="http://creativecommons.org/ns#" xmlns:dc="http://purl.org/dc/elements/1.1/" xmlns:rdf="http://www.w3.org/1999/02/22-rdf-syntax-ns#" xmlns:svg="http://www.w3.org/2000/svg"
	 xmlns="http://www.w3.org/2000/svg" xmlns:xlink="http://www.w3.org/1999/xlink" x="0px" y="0px" viewBox="0 0 637.5 225"
	 style="enable-background:new 0 0 637.5 225;" xml:space="preserve">
<style type="text/css">
	.st0{fill:#FFFFFF;}
	.st1{fill:#DF4B43;}
	.st2{clip-path:url(#SVGID_4_);}
	.st3{clip-path:url(#SVGID_8_);}
	.st4{clip-path:url(#SVGID_12_);}
	.st5{clip-path:url(#SVGID_14_);}
	.st6{clip-path:url(#SVGID_17_);}
	.st7{fill:#444444;}
	.st8{fill:url(#SVGID_18_);}
	.st9{clip-path:url(#SVGID_20_);}
	.st10{fill:url(#path142_1_);}
	.st11{clip-path:url(#SVGID_22_);}
	.st12{fill:url(#path160_1_);}
	.st13{fill:url(#SVGID_23_);}
	.st14{clip-path:url(#SVGID_25_);}
	.st15{fill:url(#path178_1_);}
	.st16{fill:#2C3A46;}
	.st17{font-family:'PingFangSC-Regular-GBpc-EUC-H';}
	.st18{font-size:70px;}
</style>
<path id="path14" class="st0" d="M71.6,112.5c0-31.1,25.2-56.3,56.3-56.3s56.2,25.2,56.2,56.3s-25.2,56.2-56.2,56.2
	C96.8,168.8,71.6,143.6,71.6,112.5"/>
<g id="g30">
	<g>
		<g>
			<polygon id="SVGID_1_" class="st1" points="125.8,159.2 99.9,147.7 98.4,164.1 127,173.1 			"/>
		</g>
		<g>
			<defs>
				<polygon id="SVGID_2_" points="125.8,159.2 99.9,147.7 98.4,164.1 127,173.1 				"/>
			</defs>
			<clipPath id="SVGID_4_">
				<use xlink:href="#SVGID_2_"  style="overflow:visible;"/>
			</clipPath>
			<g id="g32" class="st2">
				<path id="path46" class="st1" d="M125.8,159.2l-25.9-11.4l-1.4,16.3l28.5,9.1L125.8,159.2"/>
			</g>
		</g>
	</g>
</g>
<g id="g48">
	<g>
		<g>
			<path id="SVGID_3_" class="st1" d="M105,96h14.6v12.4h-3.5v-5.3c0-2.1-1.7-3.8-3.8-3.8c-2.1,0-3.8,1.7-3.8,3.8v5.3H105V96z
				 M102,123.2l21.6,9.5l-1.5-18.2h2.8v-6.1h-2.1V96h2.1v-3.6L113.3,81v-0.8c0-0.6-0.5-1.1-1.1-1.1s-1.1,0.5-1.1,1.1V81L99.5,92.5
				V96h2.1v12.4h-2.1v6.1h3.3L102,123.2z"/>
		</g>
		<g>
			<defs>
				<path id="SVGID_6_" d="M105,96h14.6v12.4h-3.5v-5.3c0-2.1-1.7-3.8-3.8-3.8c-2.1,0-3.8,1.7-3.8,3.8v5.3H105V96z M102,123.2
					l21.6,9.5l-1.5-18.2h2.8v-6.1h-2.1V96h2.1v-3.6L113.3,81v-0.8c0-0.6-0.5-1.1-1.1-1.1s-1.1,0.5-1.1,1.1V81L99.5,92.5V96h2.1v12.4
					h-2.1v6.1h3.3L102,123.2z"/>
			</defs>
			<clipPath id="SVGID_8_">
				<use xlink:href="#SVGID_6_"  style="overflow:visible;"/>
			</clipPath>
			<g id="g50" class="st3">
				<path id="path64" class="st1" d="M105,96h14.6v12.4h-3.5v-5.3c0-2.1-1.7-3.8-3.8-3.8c-2.1,0-3.8,1.7-3.8,3.8v5.3H105V96z
					 M102,123.2l21.6,9.5l-1.5-18.2h2.8v-6.1h-2.1V96h2.1v-3.6L113.3,81v-0.8c0-0.6-0.5-1.1-1.1-1.1s-1.1,0.5-1.1,1.1V81L99.5,92.5
					V96h2.1v12.4h-2.1v6.1h3.3L102,123.2"/>
			</g>
		</g>
	</g>
</g>
<g id="g66">
	<g>
		<g>
			<polygon id="SVGID_5_" class="st1" points="100.8,137.6 124.9,148.2 124.6,143.8 101.1,133.4 			"/>
		</g>
		<g>
			<defs>
				<polygon id="SVGID_10_" points="100.8,137.6 124.9,148.2 124.6,143.8 101.1,133.4 				"/>
			</defs>
			<clipPath id="SVGID_12_">
				<use xlink:href="#SVGID_10_"  style="overflow:visible;"/>
			</clipPath>
			<g id="g68" class="st4">
				<path id="path82" class="st1" d="M100.8,137.6l24.1,10.6l-0.4-4.4l-23.4-10.3L100.8,137.6"/>
			</g>
		</g>
	</g>
</g>
<g id="g84">
	<g>
		<g>
			<polygon id="SVGID_7_" class="st1" points="100.1,144.7 125.5,155.9 125.2,151.5 100.5,140.6 			"/>
		</g>
		<g>
			<defs>
				<polygon id="SVGID_13_" points="100.1,144.7 125.5,155.9 125.2,151.5 100.5,140.6 				"/>
			</defs>
			<clipPath id="SVGID_14_">
				<use xlink:href="#SVGID_13_"  style="overflow:visible;"/>
			</clipPath>
			<g id="g86" class="st5">
				<path id="path100" class="st1" d="M100.1,144.7l25.4,11.2l-0.4-4.4l-24.7-10.9L100.1,144.7"/>
			</g>
		</g>
	</g>
</g>
<g id="g102">
	<g>
		<g>
			<polygon id="SVGID_9_" class="st1" points="101.8,126.3 101.4,130.4 124.3,140.5 123.9,136.1 			"/>
		</g>
		<g>
			<defs>
				<polygon id="SVGID_15_" points="101.8,126.3 101.4,130.4 124.3,140.5 123.9,136.1 				"/>
			</defs>
			<clipPath id="SVGID_17_">
				<use xlink:href="#SVGID_15_"  style="overflow:visible;"/>
			</clipPath>
			<g id="g104" class="st6">
				<path id="path118" class="st1" d="M101.8,126.3l-0.4,4.1l22.9,10.1l-0.4-4.4L101.8,126.3"/>
			</g>
		</g>
	</g>
</g>
<path id="path120" class="st7" d="M174.8,86.8l11.7-3.8c0-0.1-0.1-0.2-0.1-0.3c-2-3.9-4.3-7.5-7-10.9l-11,5.7c2.4,2.8,4.5,5.8,6.3,9
	C174.7,86.6,174.8,86.7,174.8,86.8"/>
<path id="path122" class="st7" d="M181.3,108.9l12.2,0.9c-0.1-3.3-0.5-6.5-1.1-9.7l-12.3,0.4C180.7,103.2,181.1,106,181.3,108.9"/>
<path id="path124" class="st7" d="M127.8,166.1c-29.5,0-53.6-24-53.6-53.6c0-29.5,24-53.6,53.6-53.6c10.6,0,20.5,3.1,28.8,8.4
	l8.5-8.9c-10.6-7.4-23.5-11.7-37.3-11.7c-36.2,0-65.7,29.5-65.7,65.7s29.5,65.7,65.7,65.7c30.9,0,56.9-21.5,63.9-50.4l-11.5-4
	C175,148,153.5,166.1,127.8,166.1"/>
<g id="g126">
	<g>
		<g>
			
				<linearGradient id="SVGID_18_" gradientUnits="userSpaceOnUse" x1="125.545" y1="146.85" x2="179.345" y2="146.85" gradientTransform="matrix(1 0 0 -1 0 226)">
				<stop  offset="0" style="stop-color:#D6211D"/>
				<stop  offset="0.2971" style="stop-color:#DF4B43"/>
				<stop  offset="1" style="stop-color:#FFFFFF"/>
			</linearGradient>
			<path id="SVGID_11_" class="st8" d="M178.2,70.4c-3.3-4-7.1-7.5-11.2-10.6c-0.6-0.4-1.2-0.9-1.8-1.3l-8.5,8.9l-31.1,32.4
				l42.8-22.2l11-5.7C179,71.4,178.6,70.9,178.2,70.4z"/>
		</g>
		<g>
			<defs>
				<path id="SVGID_19_" d="M178.2,70.4c-3.3-4-7.1-7.5-11.2-10.6c-0.6-0.4-1.2-0.9-1.8-1.3l-8.5,8.9l-31.1,32.4l42.8-22.2l11-5.7
					C179,71.4,178.6,70.9,178.2,70.4z"/>
			</defs>
			<clipPath id="SVGID_20_">
				<use xlink:href="#SVGID_19_"  style="overflow:visible;"/>
			</clipPath>
			<g id="g128" class="st9">
				
					<linearGradient id="path142_1_" gradientUnits="userSpaceOnUse" x1="125.545" y1="146.85" x2="179.345" y2="146.85" gradientTransform="matrix(1 0 0 -1 0 226)">
					<stop  offset="0" style="stop-color:#D6211D"/>
					<stop  offset="0.2971" style="stop-color:#DF4B43"/>
					<stop  offset="1" style="stop-color:#FFFFFF"/>
				</linearGradient>
				<path id="path142" class="st10" d="M178.2,70.4c-3.3-4-7.1-7.5-11.2-10.6c-0.6-0.4-1.2-0.9-1.8-1.3l-8.5,8.9l-31.1,32.4
					l42.8-22.2l11-5.7C179,71.4,178.6,70.9,178.2,70.4"/>
			</g>
		</g>
	</g>
</g>
<g id="g144">
	<g>
		<g>
			<defs>
				<path id="SVGID_21_" d="M193.5,112c0-0.8-0.1-1.5-0.1-2.2l-12.2-0.9l-55.7-4l54.7,19l11.5,4c0-0.1,0.1-0.3,0.1-0.4
					c1.1-4.8,1.7-9.8,1.7-14.9C193.5,112.3,193.5,112.2,193.5,112L193.5,112z"/>
			</defs>
			<clipPath id="SVGID_22_">
				<use xlink:href="#SVGID_21_"  style="overflow:visible;"/>
			</clipPath>
			<g id="g146" class="st11">
				
					<linearGradient id="path160_1_" gradientUnits="userSpaceOnUse" x1="125.5" y1="109.6" x2="193.5" y2="109.6" gradientTransform="matrix(1 0 0 -1 0 226)">
					<stop  offset="0" style="stop-color:#D6211D"/>
					<stop  offset="0.2971" style="stop-color:#DF4B43"/>
					<stop  offset="1" style="stop-color:#FFFFFF"/>
				</linearGradient>
				<path id="path160" class="st12" d="M193.5,112c0-0.8-0.1-1.5-0.1-2.2l-12.2-0.9l-55.7-4l54.7,19l11.5,4c0-0.1,0.1-0.3,0.1-0.4
					c1.1-4.8,1.7-9.8,1.7-14.9C193.5,112.3,193.5,112.2,193.5,112"/>
			</g>
		</g>
	</g>
</g>
<g id="g162">
	<g>
		<g>
			
				<linearGradient id="SVGID_23_" gradientUnits="userSpaceOnUse" x1="126.4" y1="133.3" x2="192.3" y2="133.3" gradientTransform="matrix(1 0 0 -1 0 226)">
				<stop  offset="0" style="stop-color:#D6211D"/>
				<stop  offset="0.2971" style="stop-color:#DF4B43"/>
				<stop  offset="1" style="stop-color:#FFFFFF"/>
			</linearGradient>
			<path id="SVGID_16_" class="st13" d="M191.7,97.2c-1.2-5-3-9.8-5.2-14.2l-11.7,3.8l-48.4,15.6l53.6-1.8l12.3-0.4
				C192.1,99.1,191.9,98.2,191.7,97.2z"/>
		</g>
		<g>
			<defs>
				<path id="SVGID_24_" d="M191.7,97.2c-1.2-5-3-9.8-5.2-14.2l-11.7,3.8l-48.4,15.6l53.6-1.8l12.3-0.4
					C192.1,99.1,191.9,98.2,191.7,97.2z"/>
			</defs>
			<clipPath id="SVGID_25_">
				<use xlink:href="#SVGID_24_"  style="overflow:visible;"/>
			</clipPath>
			<g id="g164" class="st14">
				
					<linearGradient id="path178_1_" gradientUnits="userSpaceOnUse" x1="-380.4684" y1="12.7597" x2="-379.4684" y2="12.7597" gradientTransform="matrix(65.8334 -11.875 11.875 65.8334 25022.6191 -5255.1504)">
					<stop  offset="0" style="stop-color:#D6211D"/>
					<stop  offset="0.2971" style="stop-color:#DF4B43"/>
					<stop  offset="1" style="stop-color:#FFFFFF"/>
				</linearGradient>
				<path id="path178" class="st15" d="M191.7,97.2c-1.2-5-3-9.8-5.2-14.2l-11.7,3.8l-48.4,15.6l53.6-1.8l12.3-0.4
					C192.1,99.1,191.9,98.2,191.7,97.2"/>
			</g>
		</g>
	</g>
</g>
<text transform="matrix(1 0 0 1 225.0978 137.3035)" class="st16 st17 st18">智慧社区</text>
</svg>
